<mxfile host="app.diagrams.net" modified="2024-05-01T17:43:37.116Z" agent="Mozilla/5.0 (Windows NT 10.0; Win64; x64) AppleWebKit/537.36 (KHTML, like Gecko) Chrome/124.0.0.0 Safari/537.36" etag="-KSbSysz3KEbpuIiC1c5" version="24.3.1" type="github">
  <diagram name="Page-1" id="E_Zq4aiAuoUPli4xF1aR">
    <mxGraphModel dx="1799" dy="980" grid="1" gridSize="10" guides="1" tooltips="1" connect="1" arrows="1" fold="1" page="1" pageScale="1" pageWidth="850" pageHeight="1100" math="0" shadow="0">
      <root>
        <mxCell id="0" />
        <mxCell id="1" parent="0" />
        <mxCell id="pa58yBCoyjydbq_0cEsw-68" value="" style="rounded=0;whiteSpace=wrap;html=1;" vertex="1" parent="1">
          <mxGeometry x="40" y="4720" width="560" height="240" as="geometry" />
        </mxCell>
        <mxCell id="pa58yBCoyjydbq_0cEsw-67" value="" style="rounded=0;whiteSpace=wrap;html=1;" vertex="1" parent="1">
          <mxGeometry x="40" y="4400" width="640" height="240" as="geometry" />
        </mxCell>
        <mxCell id="pa58yBCoyjydbq_0cEsw-52" value="" style="rounded=0;whiteSpace=wrap;html=1;fillColor=default;fontColor=default;" vertex="1" parent="1">
          <mxGeometry x="40" width="1200" height="680" as="geometry" />
        </mxCell>
        <mxCell id="pa58yBCoyjydbq_0cEsw-29" style="edgeStyle=orthogonalEdgeStyle;rounded=0;orthogonalLoop=1;jettySize=auto;html=1;exitX=1;exitY=0.5;exitDx=0;exitDy=0;entryX=0;entryY=0.5;entryDx=0;entryDy=0;" edge="1" parent="1" source="pa58yBCoyjydbq_0cEsw-19" target="pa58yBCoyjydbq_0cEsw-20">
          <mxGeometry relative="1" as="geometry" />
        </mxCell>
        <mxCell id="pa58yBCoyjydbq_0cEsw-19" value="Business Documents" style="shape=document;whiteSpace=wrap;html=1;boundedLbl=1;fontStyle=1;fillColor=#f8cecc;gradientColor=#ea6b66;strokeColor=#b85450;" vertex="1" parent="1">
          <mxGeometry x="440" y="50" width="120" height="80" as="geometry" />
        </mxCell>
        <mxCell id="pa58yBCoyjydbq_0cEsw-43" style="edgeStyle=orthogonalEdgeStyle;rounded=0;orthogonalLoop=1;jettySize=auto;html=1;exitX=1;exitY=0.5;exitDx=0;exitDy=0;entryX=0.5;entryY=0;entryDx=0;entryDy=0;" edge="1" parent="1" source="pa58yBCoyjydbq_0cEsw-20" target="pa58yBCoyjydbq_0cEsw-41">
          <mxGeometry relative="1" as="geometry" />
        </mxCell>
        <mxCell id="pa58yBCoyjydbq_0cEsw-48" style="edgeStyle=orthogonalEdgeStyle;rounded=0;orthogonalLoop=1;jettySize=auto;html=1;exitX=1;exitY=0.5;exitDx=0;exitDy=0;entryX=0;entryY=0.5;entryDx=0;entryDy=0;" edge="1" parent="1" source="pa58yBCoyjydbq_0cEsw-20" target="pa58yBCoyjydbq_0cEsw-47">
          <mxGeometry relative="1" as="geometry" />
        </mxCell>
        <mxCell id="pa58yBCoyjydbq_0cEsw-20" value="Develop Project Charter" style="rounded=0;whiteSpace=wrap;html=1;fillColor=#d5e8d4;strokeColor=#82b366;fontStyle=1;gradientColor=#97d077;fontSize=25;" vertex="1" parent="1">
          <mxGeometry x="640" y="80" width="240" height="120" as="geometry" />
        </mxCell>
        <mxCell id="pa58yBCoyjydbq_0cEsw-23" style="edgeStyle=orthogonalEdgeStyle;rounded=0;orthogonalLoop=1;jettySize=auto;html=1;exitX=1;exitY=0.5;exitDx=0;exitDy=0;entryX=0;entryY=0.25;entryDx=0;entryDy=0;" edge="1" parent="1" source="pa58yBCoyjydbq_0cEsw-21" target="pa58yBCoyjydbq_0cEsw-19">
          <mxGeometry relative="1" as="geometry" />
        </mxCell>
        <mxCell id="pa58yBCoyjydbq_0cEsw-21" value="Business Case" style="rounded=0;whiteSpace=wrap;html=1;fontStyle=1;align=left;spacingLeft=10;fillColor=#fff2cc;gradientColor=#ffd966;strokeColor=#d6b656;" vertex="1" parent="1">
          <mxGeometry x="80" y="60" width="280" height="20" as="geometry" />
        </mxCell>
        <mxCell id="pa58yBCoyjydbq_0cEsw-24" style="edgeStyle=orthogonalEdgeStyle;rounded=0;orthogonalLoop=1;jettySize=auto;html=1;exitX=1;exitY=0.5;exitDx=0;exitDy=0;entryX=0;entryY=0.25;entryDx=0;entryDy=0;" edge="1" parent="1" source="pa58yBCoyjydbq_0cEsw-22" target="pa58yBCoyjydbq_0cEsw-19">
          <mxGeometry relative="1" as="geometry">
            <Array as="points">
              <mxPoint x="400" y="100" />
              <mxPoint x="400" y="70" />
            </Array>
          </mxGeometry>
        </mxCell>
        <mxCell id="pa58yBCoyjydbq_0cEsw-22" value="Benefits Management Plan" style="rounded=0;whiteSpace=wrap;html=1;fontStyle=1;align=left;spacingLeft=10;fillColor=#fff2cc;gradientColor=#ffd966;strokeColor=#d6b656;" vertex="1" parent="1">
          <mxGeometry x="80" y="90" width="280" height="20" as="geometry" />
        </mxCell>
        <mxCell id="pa58yBCoyjydbq_0cEsw-26" style="edgeStyle=orthogonalEdgeStyle;rounded=0;orthogonalLoop=1;jettySize=auto;html=1;exitX=1;exitY=0.5;exitDx=0;exitDy=0;entryX=0;entryY=0.25;entryDx=0;entryDy=0;" edge="1" parent="1" source="pa58yBCoyjydbq_0cEsw-25" target="pa58yBCoyjydbq_0cEsw-19">
          <mxGeometry relative="1" as="geometry">
            <Array as="points">
              <mxPoint x="400" y="130" />
              <mxPoint x="400" y="70" />
            </Array>
          </mxGeometry>
        </mxCell>
        <mxCell id="pa58yBCoyjydbq_0cEsw-25" value="Agreements" style="rounded=0;whiteSpace=wrap;html=1;fontStyle=1;align=left;spacingLeft=10;fillColor=#fff2cc;gradientColor=#ffd966;strokeColor=#d6b656;" vertex="1" parent="1">
          <mxGeometry x="80" y="120" width="280" height="20" as="geometry" />
        </mxCell>
        <mxCell id="pa58yBCoyjydbq_0cEsw-49" style="edgeStyle=orthogonalEdgeStyle;rounded=0;orthogonalLoop=1;jettySize=auto;html=1;exitX=1;exitY=0.5;exitDx=0;exitDy=0;entryX=0;entryY=0.25;entryDx=0;entryDy=0;" edge="1" parent="1" source="pa58yBCoyjydbq_0cEsw-27" target="pa58yBCoyjydbq_0cEsw-32">
          <mxGeometry relative="1" as="geometry" />
        </mxCell>
        <mxCell id="pa58yBCoyjydbq_0cEsw-27" value="Enterprise Organizational Factors" style="rounded=0;whiteSpace=wrap;html=1;fontStyle=1;align=left;spacingLeft=10;fillColor=#fff2cc;gradientColor=#ffd966;strokeColor=#d6b656;" vertex="1" parent="1">
          <mxGeometry x="80" y="180" width="280" height="20" as="geometry" />
        </mxCell>
        <mxCell id="pa58yBCoyjydbq_0cEsw-50" style="edgeStyle=orthogonalEdgeStyle;rounded=0;orthogonalLoop=1;jettySize=auto;html=1;exitX=1;exitY=0.5;exitDx=0;exitDy=0;entryX=0;entryY=0.25;entryDx=0;entryDy=0;" edge="1" parent="1" source="pa58yBCoyjydbq_0cEsw-28" target="pa58yBCoyjydbq_0cEsw-32">
          <mxGeometry relative="1" as="geometry" />
        </mxCell>
        <mxCell id="pa58yBCoyjydbq_0cEsw-28" value="Organizational Processes Assets" style="rounded=0;whiteSpace=wrap;html=1;fontStyle=1;align=left;spacingLeft=10;fillColor=#fff2cc;gradientColor=#ffd966;strokeColor=#d6b656;" vertex="1" parent="1">
          <mxGeometry x="80" y="220" width="280" height="20" as="geometry" />
        </mxCell>
        <mxCell id="pa58yBCoyjydbq_0cEsw-38" style="edgeStyle=orthogonalEdgeStyle;rounded=0;orthogonalLoop=1;jettySize=auto;html=1;exitX=1;exitY=0.5;exitDx=0;exitDy=0;entryX=0;entryY=0.5;entryDx=0;entryDy=0;" edge="1" parent="1" source="pa58yBCoyjydbq_0cEsw-32" target="pa58yBCoyjydbq_0cEsw-20">
          <mxGeometry relative="1" as="geometry" />
        </mxCell>
        <mxCell id="pa58yBCoyjydbq_0cEsw-32" value="Enterprise /&lt;div&gt;Organization&lt;/div&gt;" style="shape=document;whiteSpace=wrap;html=1;boundedLbl=1;fontStyle=1;fillColor=#f8cecc;gradientColor=#ea6b66;strokeColor=#b85450;" vertex="1" parent="1">
          <mxGeometry x="440" y="170" width="120" height="80" as="geometry" />
        </mxCell>
        <mxCell id="pa58yBCoyjydbq_0cEsw-39" value="Project&lt;div&gt;Documents&lt;/div&gt;" style="shape=document;whiteSpace=wrap;html=1;boundedLbl=1;fontStyle=1;fillColor=#f8cecc;gradientColor=#ea6b66;strokeColor=#b85450;" vertex="1" parent="1">
          <mxGeometry x="940" y="280" width="120" height="80" as="geometry" />
        </mxCell>
        <mxCell id="pa58yBCoyjydbq_0cEsw-44" style="edgeStyle=orthogonalEdgeStyle;rounded=0;orthogonalLoop=1;jettySize=auto;html=1;exitX=0.5;exitY=1;exitDx=0;exitDy=0;" edge="1" parent="1" source="pa58yBCoyjydbq_0cEsw-41" target="pa58yBCoyjydbq_0cEsw-39">
          <mxGeometry relative="1" as="geometry" />
        </mxCell>
        <mxCell id="pa58yBCoyjydbq_0cEsw-41" value="Assumptions Log" style="rounded=0;whiteSpace=wrap;html=1;fontStyle=1;align=left;spacingLeft=10;fillColor=#fff2cc;gradientColor=#ffd966;strokeColor=#d6b656;" vertex="1" parent="1">
          <mxGeometry x="920" y="220" width="160" height="20" as="geometry" />
        </mxCell>
        <mxCell id="pa58yBCoyjydbq_0cEsw-47" value="Project Charter" style="rounded=0;whiteSpace=wrap;html=1;fontStyle=1;align=left;spacingLeft=10;fillColor=#fff2cc;gradientColor=#ffd966;strokeColor=#d6b656;" vertex="1" parent="1">
          <mxGeometry x="1040" y="130" width="160" height="20" as="geometry" />
        </mxCell>
        <mxCell id="pa58yBCoyjydbq_0cEsw-51" value="Project Charter Creation" style="text;html=1;align=center;verticalAlign=middle;whiteSpace=wrap;rounded=0;fontSize=35;fontStyle=1" vertex="1" parent="1">
          <mxGeometry x="80" y="640" width="430" height="30" as="geometry" />
        </mxCell>
        <mxCell id="pa58yBCoyjydbq_0cEsw-53" style="edgeStyle=orthogonalEdgeStyle;rounded=0;orthogonalLoop=1;jettySize=auto;html=1;exitX=1;exitY=0.5;exitDx=0;exitDy=0;entryX=0;entryY=0.25;entryDx=0;entryDy=0;" edge="1" parent="1" source="pa58yBCoyjydbq_0cEsw-54" target="pa58yBCoyjydbq_0cEsw-57">
          <mxGeometry relative="1" as="geometry" />
        </mxCell>
        <mxCell id="pa58yBCoyjydbq_0cEsw-54" value="Enterprise Organizational Factors" style="rounded=0;whiteSpace=wrap;html=1;fontStyle=1;align=left;spacingLeft=10;fillColor=#fff2cc;gradientColor=#ffd966;strokeColor=#d6b656;" vertex="1" parent="1">
          <mxGeometry x="80" y="4520" width="280" height="20" as="geometry" />
        </mxCell>
        <mxCell id="pa58yBCoyjydbq_0cEsw-55" style="edgeStyle=orthogonalEdgeStyle;rounded=0;orthogonalLoop=1;jettySize=auto;html=1;exitX=1;exitY=0.5;exitDx=0;exitDy=0;entryX=0;entryY=0.25;entryDx=0;entryDy=0;" edge="1" parent="1" source="pa58yBCoyjydbq_0cEsw-56" target="pa58yBCoyjydbq_0cEsw-57">
          <mxGeometry relative="1" as="geometry" />
        </mxCell>
        <mxCell id="pa58yBCoyjydbq_0cEsw-56" value="Organizational Processes Assets" style="rounded=0;whiteSpace=wrap;html=1;fontStyle=1;align=left;spacingLeft=10;fillColor=#fff2cc;gradientColor=#ffd966;strokeColor=#d6b656;" vertex="1" parent="1">
          <mxGeometry x="80" y="4560" width="280" height="20" as="geometry" />
        </mxCell>
        <mxCell id="pa58yBCoyjydbq_0cEsw-57" value="Enterprise /&lt;div&gt;Organization&lt;/div&gt;" style="shape=document;whiteSpace=wrap;html=1;boundedLbl=1;fontStyle=1;fillColor=#f8cecc;gradientColor=#ea6b66;strokeColor=#b85450;" vertex="1" parent="1">
          <mxGeometry x="440" y="4510" width="120" height="80" as="geometry" />
        </mxCell>
        <mxCell id="pa58yBCoyjydbq_0cEsw-58" value="Business Operational Documents" style="text;html=1;align=center;verticalAlign=middle;whiteSpace=wrap;rounded=0;fontSize=35;fontStyle=1" vertex="1" parent="1">
          <mxGeometry x="80" y="4440" width="570" height="30" as="geometry" />
        </mxCell>
        <mxCell id="pa58yBCoyjydbq_0cEsw-59" value="Business Documents" style="shape=document;whiteSpace=wrap;html=1;boundedLbl=1;fontStyle=1;fillColor=#f8cecc;gradientColor=#ea6b66;strokeColor=#b85450;" vertex="1" parent="1">
          <mxGeometry x="440" y="4820" width="120" height="80" as="geometry" />
        </mxCell>
        <mxCell id="pa58yBCoyjydbq_0cEsw-60" style="edgeStyle=orthogonalEdgeStyle;rounded=0;orthogonalLoop=1;jettySize=auto;html=1;exitX=1;exitY=0.5;exitDx=0;exitDy=0;entryX=0;entryY=0.25;entryDx=0;entryDy=0;" edge="1" parent="1" source="pa58yBCoyjydbq_0cEsw-61" target="pa58yBCoyjydbq_0cEsw-59">
          <mxGeometry relative="1" as="geometry" />
        </mxCell>
        <mxCell id="pa58yBCoyjydbq_0cEsw-61" value="Business Case" style="rounded=0;whiteSpace=wrap;html=1;fontStyle=1;align=left;spacingLeft=10;fillColor=#fff2cc;gradientColor=#ffd966;strokeColor=#d6b656;" vertex="1" parent="1">
          <mxGeometry x="80" y="4830" width="280" height="20" as="geometry" />
        </mxCell>
        <mxCell id="pa58yBCoyjydbq_0cEsw-62" style="edgeStyle=orthogonalEdgeStyle;rounded=0;orthogonalLoop=1;jettySize=auto;html=1;exitX=1;exitY=0.5;exitDx=0;exitDy=0;entryX=0;entryY=0.25;entryDx=0;entryDy=0;" edge="1" parent="1" source="pa58yBCoyjydbq_0cEsw-63" target="pa58yBCoyjydbq_0cEsw-59">
          <mxGeometry relative="1" as="geometry">
            <Array as="points">
              <mxPoint x="400" y="4870" />
              <mxPoint x="400" y="4840" />
            </Array>
          </mxGeometry>
        </mxCell>
        <mxCell id="pa58yBCoyjydbq_0cEsw-63" value="Benefits Management Plan" style="rounded=0;whiteSpace=wrap;html=1;fontStyle=1;align=left;spacingLeft=10;fillColor=#fff2cc;gradientColor=#ffd966;strokeColor=#d6b656;" vertex="1" parent="1">
          <mxGeometry x="80" y="4860" width="280" height="20" as="geometry" />
        </mxCell>
        <mxCell id="pa58yBCoyjydbq_0cEsw-64" style="edgeStyle=orthogonalEdgeStyle;rounded=0;orthogonalLoop=1;jettySize=auto;html=1;exitX=1;exitY=0.5;exitDx=0;exitDy=0;entryX=0;entryY=0.25;entryDx=0;entryDy=0;" edge="1" parent="1" source="pa58yBCoyjydbq_0cEsw-65" target="pa58yBCoyjydbq_0cEsw-59">
          <mxGeometry relative="1" as="geometry">
            <Array as="points">
              <mxPoint x="400" y="4900" />
              <mxPoint x="400" y="4840" />
            </Array>
          </mxGeometry>
        </mxCell>
        <mxCell id="pa58yBCoyjydbq_0cEsw-65" value="Agreements" style="rounded=0;whiteSpace=wrap;html=1;fontStyle=1;align=left;spacingLeft=10;fillColor=#fff2cc;gradientColor=#ffd966;strokeColor=#d6b656;" vertex="1" parent="1">
          <mxGeometry x="80" y="4890" width="280" height="20" as="geometry" />
        </mxCell>
        <mxCell id="pa58yBCoyjydbq_0cEsw-66" value="Project Requirements." style="text;html=1;align=center;verticalAlign=middle;whiteSpace=wrap;rounded=0;fontSize=35;fontStyle=1" vertex="1" parent="1">
          <mxGeometry x="110" y="4760" width="380" height="30" as="geometry" />
        </mxCell>
        <mxCell id="pa58yBCoyjydbq_0cEsw-70" value="" style="rounded=0;whiteSpace=wrap;html=1;fillColor=none;" vertex="1" parent="1">
          <mxGeometry y="5040" width="605" height="800" as="geometry" />
        </mxCell>
        <mxCell id="pa58yBCoyjydbq_0cEsw-73" value="Expert Judgment" style="rounded=0;whiteSpace=wrap;html=1;fontStyle=1;align=left;spacingLeft=10;fillColor=#dae8fc;strokeColor=#6c8ebf;" vertex="1" parent="1">
          <mxGeometry x="280" y="5150" width="280" height="20" as="geometry" />
        </mxCell>
        <mxCell id="pa58yBCoyjydbq_0cEsw-74" value="Data Gathering" style="rounded=0;whiteSpace=wrap;html=1;fontStyle=1;align=left;spacingLeft=10;fillColor=#dae8fc;strokeColor=#6c8ebf;" vertex="1" parent="1">
          <mxGeometry x="280" y="5180" width="280" height="20" as="geometry" />
        </mxCell>
        <mxCell id="pa58yBCoyjydbq_0cEsw-75" value="Interpersonal and Team Skills" style="rounded=0;whiteSpace=wrap;html=1;fontStyle=1;align=left;spacingLeft=10;fillColor=#dae8fc;strokeColor=#6c8ebf;" vertex="1" parent="1">
          <mxGeometry x="280" y="5300" width="280" height="20" as="geometry" />
        </mxCell>
        <mxCell id="pa58yBCoyjydbq_0cEsw-76" value="Meetings" style="rounded=0;whiteSpace=wrap;html=1;fontStyle=1;align=left;spacingLeft=10;fillColor=#dae8fc;strokeColor=#6c8ebf;" vertex="1" parent="1">
          <mxGeometry x="280" y="5390" width="280" height="20" as="geometry" />
        </mxCell>
        <mxCell id="pa58yBCoyjydbq_0cEsw-77" value="" style="rounded=0;whiteSpace=wrap;html=1;fontStyle=1;align=left;spacingLeft=10;fillColor=#dae8fc;strokeColor=#6c8ebf;" vertex="1" parent="1">
          <mxGeometry x="280" y="5430" width="280" height="20" as="geometry" />
        </mxCell>
        <mxCell id="pa58yBCoyjydbq_0cEsw-78" value="" style="rounded=0;whiteSpace=wrap;html=1;fontStyle=1;align=left;spacingLeft=10;fillColor=#dae8fc;strokeColor=#6c8ebf;" vertex="1" parent="1">
          <mxGeometry x="280" y="5460" width="280" height="20" as="geometry" />
        </mxCell>
        <mxCell id="pa58yBCoyjydbq_0cEsw-79" value="" style="rounded=0;whiteSpace=wrap;html=1;fontStyle=1;align=left;spacingLeft=10;fillColor=#dae8fc;strokeColor=#6c8ebf;" vertex="1" parent="1">
          <mxGeometry x="280" y="5490" width="280" height="20" as="geometry" />
        </mxCell>
        <mxCell id="pa58yBCoyjydbq_0cEsw-80" value="" style="rounded=0;whiteSpace=wrap;html=1;fontStyle=1;align=left;spacingLeft=10;fillColor=#dae8fc;strokeColor=#6c8ebf;" vertex="1" parent="1">
          <mxGeometry x="280" y="5520" width="280" height="20" as="geometry" />
        </mxCell>
        <mxCell id="pa58yBCoyjydbq_0cEsw-81" value="" style="rounded=0;whiteSpace=wrap;html=1;fontStyle=1;align=left;spacingLeft=10;fillColor=#dae8fc;strokeColor=#6c8ebf;" vertex="1" parent="1">
          <mxGeometry x="280" y="5550" width="280" height="20" as="geometry" />
        </mxCell>
        <mxCell id="pa58yBCoyjydbq_0cEsw-82" value="" style="rounded=0;whiteSpace=wrap;html=1;fontStyle=1;align=left;spacingLeft=10;fillColor=#dae8fc;strokeColor=#6c8ebf;" vertex="1" parent="1">
          <mxGeometry x="280" y="5580" width="280" height="20" as="geometry" />
        </mxCell>
        <mxCell id="pa58yBCoyjydbq_0cEsw-86" style="edgeStyle=orthogonalEdgeStyle;rounded=0;orthogonalLoop=1;jettySize=auto;html=1;exitX=1;exitY=0.5;exitDx=0;exitDy=0;entryX=0;entryY=0.5;entryDx=0;entryDy=0;" edge="1" parent="1" source="pa58yBCoyjydbq_0cEsw-83" target="pa58yBCoyjydbq_0cEsw-74">
          <mxGeometry relative="1" as="geometry" />
        </mxCell>
        <mxCell id="pa58yBCoyjydbq_0cEsw-83" value="Brainstorming" style="rounded=0;whiteSpace=wrap;html=1;fontStyle=1;align=left;spacingLeft=10;fillColor=#fff2cc;strokeColor=#d6b656;" vertex="1" parent="1">
          <mxGeometry x="40" y="5180" width="160" height="20" as="geometry" />
        </mxCell>
        <mxCell id="pa58yBCoyjydbq_0cEsw-88" style="edgeStyle=orthogonalEdgeStyle;rounded=0;orthogonalLoop=1;jettySize=auto;html=1;exitX=1;exitY=0.5;exitDx=0;exitDy=0;entryX=0;entryY=0.5;entryDx=0;entryDy=0;" edge="1" parent="1" source="pa58yBCoyjydbq_0cEsw-84" target="pa58yBCoyjydbq_0cEsw-74">
          <mxGeometry relative="1" as="geometry" />
        </mxCell>
        <mxCell id="pa58yBCoyjydbq_0cEsw-84" value="Checklists" style="rounded=0;whiteSpace=wrap;html=1;fontStyle=1;align=left;spacingLeft=10;fillColor=#fff2cc;strokeColor=#d6b656;" vertex="1" parent="1">
          <mxGeometry x="40" y="5210" width="160" height="20" as="geometry" />
        </mxCell>
        <mxCell id="pa58yBCoyjydbq_0cEsw-89" style="edgeStyle=orthogonalEdgeStyle;rounded=0;orthogonalLoop=1;jettySize=auto;html=1;exitX=1;exitY=0.5;exitDx=0;exitDy=0;entryX=0;entryY=0.5;entryDx=0;entryDy=0;" edge="1" parent="1" source="pa58yBCoyjydbq_0cEsw-85" target="pa58yBCoyjydbq_0cEsw-74">
          <mxGeometry relative="1" as="geometry" />
        </mxCell>
        <mxCell id="pa58yBCoyjydbq_0cEsw-85" value="Focus groups" style="rounded=0;whiteSpace=wrap;html=1;fontStyle=1;align=left;spacingLeft=10;fillColor=#fff2cc;strokeColor=#d6b656;" vertex="1" parent="1">
          <mxGeometry x="40" y="5240" width="160" height="20" as="geometry" />
        </mxCell>
        <mxCell id="pa58yBCoyjydbq_0cEsw-96" style="edgeStyle=orthogonalEdgeStyle;rounded=0;orthogonalLoop=1;jettySize=auto;html=1;exitX=1;exitY=0.5;exitDx=0;exitDy=0;entryX=0;entryY=0.5;entryDx=0;entryDy=0;" edge="1" parent="1" source="pa58yBCoyjydbq_0cEsw-93" target="pa58yBCoyjydbq_0cEsw-75">
          <mxGeometry relative="1" as="geometry" />
        </mxCell>
        <mxCell id="pa58yBCoyjydbq_0cEsw-93" value="Conflict Management" style="rounded=0;whiteSpace=wrap;html=1;fontStyle=1;align=left;spacingLeft=10;fillColor=#fff2cc;strokeColor=#d6b656;" vertex="1" parent="1">
          <mxGeometry x="40" y="5300" width="160" height="20" as="geometry" />
        </mxCell>
        <mxCell id="pa58yBCoyjydbq_0cEsw-97" style="edgeStyle=orthogonalEdgeStyle;rounded=0;orthogonalLoop=1;jettySize=auto;html=1;exitX=1;exitY=0.5;exitDx=0;exitDy=0;entryX=0;entryY=0.5;entryDx=0;entryDy=0;" edge="1" parent="1" source="pa58yBCoyjydbq_0cEsw-94" target="pa58yBCoyjydbq_0cEsw-75">
          <mxGeometry relative="1" as="geometry" />
        </mxCell>
        <mxCell id="pa58yBCoyjydbq_0cEsw-94" value="Facilitation" style="rounded=0;whiteSpace=wrap;html=1;fontStyle=1;align=left;spacingLeft=10;fillColor=#fff2cc;strokeColor=#d6b656;" vertex="1" parent="1">
          <mxGeometry x="40" y="5330" width="160" height="20" as="geometry" />
        </mxCell>
        <mxCell id="pa58yBCoyjydbq_0cEsw-99" style="edgeStyle=orthogonalEdgeStyle;rounded=0;orthogonalLoop=1;jettySize=auto;html=1;exitX=1;exitY=0.5;exitDx=0;exitDy=0;entryX=0;entryY=0.5;entryDx=0;entryDy=0;" edge="1" parent="1" source="pa58yBCoyjydbq_0cEsw-95" target="pa58yBCoyjydbq_0cEsw-75">
          <mxGeometry relative="1" as="geometry" />
        </mxCell>
        <mxCell id="pa58yBCoyjydbq_0cEsw-95" value="Meeting Management" style="rounded=0;whiteSpace=wrap;html=1;fontStyle=1;align=left;spacingLeft=10;fillColor=#fff2cc;strokeColor=#d6b656;" vertex="1" parent="1">
          <mxGeometry x="40" y="5360" width="160" height="20" as="geometry" />
        </mxCell>
        <mxCell id="pa58yBCoyjydbq_0cEsw-101" value="" style="rounded=0;whiteSpace=wrap;html=1;fillColor=default;" vertex="1" parent="1">
          <mxGeometry x="1400" y="71" width="1120" height="769" as="geometry" />
        </mxCell>
        <mxCell id="pa58yBCoyjydbq_0cEsw-102" style="edgeStyle=orthogonalEdgeStyle;rounded=0;orthogonalLoop=1;jettySize=auto;html=1;exitX=1;exitY=0.5;exitDx=0;exitDy=0;entryX=0;entryY=0.5;entryDx=0;entryDy=0;" edge="1" parent="1" source="pa58yBCoyjydbq_0cEsw-103" target="pa58yBCoyjydbq_0cEsw-106">
          <mxGeometry relative="1" as="geometry" />
        </mxCell>
        <mxCell id="pa58yBCoyjydbq_0cEsw-103" value="Project Charter" style="shape=document;whiteSpace=wrap;html=1;boundedLbl=1;fontStyle=1;fillColor=#d5e8d4;strokeColor=#82b366;gradientColor=#97d077;" vertex="1" parent="1">
          <mxGeometry x="1800" y="121" width="120" height="80" as="geometry" />
        </mxCell>
        <mxCell id="pa58yBCoyjydbq_0cEsw-105" style="edgeStyle=orthogonalEdgeStyle;rounded=0;orthogonalLoop=1;jettySize=auto;html=1;exitX=1;exitY=0.5;exitDx=0;exitDy=0;entryX=0;entryY=0.5;entryDx=0;entryDy=0;" edge="1" parent="1" source="pa58yBCoyjydbq_0cEsw-106" target="pa58yBCoyjydbq_0cEsw-122">
          <mxGeometry relative="1" as="geometry" />
        </mxCell>
        <mxCell id="pa58yBCoyjydbq_0cEsw-106" value="Develop Project Management Plan" style="rounded=0;whiteSpace=wrap;html=1;fillColor=#d5e8d4;strokeColor=#82b366;fontStyle=1;gradientColor=#97d077;fontSize=25;" vertex="1" parent="1">
          <mxGeometry x="2000" y="151" width="240" height="120" as="geometry" />
        </mxCell>
        <mxCell id="pa58yBCoyjydbq_0cEsw-113" style="edgeStyle=orthogonalEdgeStyle;rounded=0;orthogonalLoop=1;jettySize=auto;html=1;exitX=1;exitY=0.5;exitDx=0;exitDy=0;entryX=0;entryY=0.25;entryDx=0;entryDy=0;" edge="1" parent="1" source="pa58yBCoyjydbq_0cEsw-114" target="pa58yBCoyjydbq_0cEsw-118">
          <mxGeometry relative="1" as="geometry" />
        </mxCell>
        <mxCell id="pa58yBCoyjydbq_0cEsw-114" value="Enterprise Organizational Factors" style="rounded=0;whiteSpace=wrap;html=1;fontStyle=1;align=left;spacingLeft=10;fillColor=#fff2cc;gradientColor=#ffd966;strokeColor=#d6b656;" vertex="1" parent="1">
          <mxGeometry x="1440" y="251" width="280" height="20" as="geometry" />
        </mxCell>
        <mxCell id="pa58yBCoyjydbq_0cEsw-115" style="edgeStyle=orthogonalEdgeStyle;rounded=0;orthogonalLoop=1;jettySize=auto;html=1;exitX=1;exitY=0.5;exitDx=0;exitDy=0;entryX=0;entryY=0.25;entryDx=0;entryDy=0;" edge="1" parent="1" source="pa58yBCoyjydbq_0cEsw-116" target="pa58yBCoyjydbq_0cEsw-118">
          <mxGeometry relative="1" as="geometry" />
        </mxCell>
        <mxCell id="pa58yBCoyjydbq_0cEsw-116" value="Organizational Processes Assets" style="rounded=0;whiteSpace=wrap;html=1;fontStyle=1;align=left;spacingLeft=10;fillColor=#fff2cc;gradientColor=#ffd966;strokeColor=#d6b656;" vertex="1" parent="1">
          <mxGeometry x="1440" y="291" width="280" height="20" as="geometry" />
        </mxCell>
        <mxCell id="pa58yBCoyjydbq_0cEsw-117" style="edgeStyle=orthogonalEdgeStyle;rounded=0;orthogonalLoop=1;jettySize=auto;html=1;exitX=1;exitY=0.5;exitDx=0;exitDy=0;entryX=0;entryY=0.5;entryDx=0;entryDy=0;" edge="1" parent="1" source="pa58yBCoyjydbq_0cEsw-118" target="pa58yBCoyjydbq_0cEsw-106">
          <mxGeometry relative="1" as="geometry" />
        </mxCell>
        <mxCell id="pa58yBCoyjydbq_0cEsw-118" value="Enterprise /&lt;div&gt;Organization&lt;/div&gt;" style="shape=document;whiteSpace=wrap;html=1;boundedLbl=1;fontStyle=1;fillColor=#f8cecc;gradientColor=#ea6b66;strokeColor=#b85450;" vertex="1" parent="1">
          <mxGeometry x="1800" y="241" width="120" height="80" as="geometry" />
        </mxCell>
        <mxCell id="pa58yBCoyjydbq_0cEsw-119" value="Project&lt;div&gt;Documents&lt;/div&gt;" style="shape=document;whiteSpace=wrap;html=1;boundedLbl=1;fontStyle=1;fillColor=#f8cecc;gradientColor=#ea6b66;strokeColor=#b85450;" vertex="1" parent="1">
          <mxGeometry x="2320" y="280" width="120" height="80" as="geometry" />
        </mxCell>
        <mxCell id="pa58yBCoyjydbq_0cEsw-139" style="edgeStyle=orthogonalEdgeStyle;rounded=0;orthogonalLoop=1;jettySize=auto;html=1;exitX=0.5;exitY=1;exitDx=0;exitDy=0;entryX=0.5;entryY=0;entryDx=0;entryDy=0;" edge="1" parent="1" source="pa58yBCoyjydbq_0cEsw-122" target="pa58yBCoyjydbq_0cEsw-119">
          <mxGeometry relative="1" as="geometry" />
        </mxCell>
        <mxCell id="pa58yBCoyjydbq_0cEsw-122" value="Project Management Plan" style="rounded=0;whiteSpace=wrap;html=1;fontStyle=1;align=left;spacingLeft=10;fillColor=#fff2cc;gradientColor=#ffd966;strokeColor=#d6b656;" vertex="1" parent="1">
          <mxGeometry x="2300" y="201" width="160" height="20" as="geometry" />
        </mxCell>
        <mxCell id="pa58yBCoyjydbq_0cEsw-123" value="Project Management Plan" style="text;html=1;align=center;verticalAlign=middle;whiteSpace=wrap;rounded=0;fontSize=35;fontStyle=1" vertex="1" parent="1">
          <mxGeometry x="1440" y="800" width="430" height="30" as="geometry" />
        </mxCell>
        <mxCell id="pa58yBCoyjydbq_0cEsw-124" style="edgeStyle=orthogonalEdgeStyle;rounded=0;orthogonalLoop=1;jettySize=auto;html=1;exitX=1;exitY=0.5;exitDx=0;exitDy=0;entryX=0;entryY=0.25;entryDx=0;entryDy=0;strokeWidth=4;" edge="1" parent="1" source="pa58yBCoyjydbq_0cEsw-47" target="pa58yBCoyjydbq_0cEsw-103">
          <mxGeometry relative="1" as="geometry" />
        </mxCell>
        <mxCell id="pa58yBCoyjydbq_0cEsw-137" style="edgeStyle=orthogonalEdgeStyle;rounded=0;orthogonalLoop=1;jettySize=auto;html=1;exitX=1;exitY=0.5;exitDx=0;exitDy=0;entryX=0;entryY=0.5;entryDx=0;entryDy=0;" edge="1" parent="1" source="pa58yBCoyjydbq_0cEsw-131" target="pa58yBCoyjydbq_0cEsw-136">
          <mxGeometry relative="1" as="geometry" />
        </mxCell>
        <mxCell id="pa58yBCoyjydbq_0cEsw-131" value="Any Baseline or component plan" style="rounded=0;whiteSpace=wrap;html=1;fontStyle=1;align=left;spacingLeft=10;fillColor=#fff2cc;gradientColor=#ffd966;strokeColor=#d6b656;" vertex="1" parent="1">
          <mxGeometry x="1440" y="370" width="280" height="20" as="geometry" />
        </mxCell>
        <mxCell id="pa58yBCoyjydbq_0cEsw-138" style="edgeStyle=orthogonalEdgeStyle;rounded=0;orthogonalLoop=1;jettySize=auto;html=1;exitX=1;exitY=0.5;exitDx=0;exitDy=0;entryX=0;entryY=0.5;entryDx=0;entryDy=0;" edge="1" parent="1" source="pa58yBCoyjydbq_0cEsw-136" target="pa58yBCoyjydbq_0cEsw-106">
          <mxGeometry relative="1" as="geometry" />
        </mxCell>
        <mxCell id="pa58yBCoyjydbq_0cEsw-136" value="Outputs from other Processes" style="rounded=0;whiteSpace=wrap;html=1;fillColor=#d5e8d4;gradientColor=#97d077;strokeColor=#82b366;" vertex="1" parent="1">
          <mxGeometry x="1800" y="350" width="120" height="60" as="geometry" />
        </mxCell>
        <mxCell id="pa58yBCoyjydbq_0cEsw-141" value="Expert Judgment" style="rounded=0;whiteSpace=wrap;html=1;fontStyle=1;align=left;spacingLeft=10;fillColor=#dae8fc;strokeColor=#6c8ebf;" vertex="1" parent="1">
          <mxGeometry x="320" y="381" width="280" height="20" as="geometry" />
        </mxCell>
        <mxCell id="pa58yBCoyjydbq_0cEsw-142" value="Data Gathering" style="rounded=0;whiteSpace=wrap;html=1;fontStyle=1;align=left;spacingLeft=10;fillColor=#dae8fc;strokeColor=#6c8ebf;" vertex="1" parent="1">
          <mxGeometry x="320" y="411" width="280" height="20" as="geometry" />
        </mxCell>
        <mxCell id="pa58yBCoyjydbq_0cEsw-143" value="Interpersonal and Team Skills" style="rounded=0;whiteSpace=wrap;html=1;fontStyle=1;align=left;spacingLeft=10;fillColor=#dae8fc;strokeColor=#6c8ebf;" vertex="1" parent="1">
          <mxGeometry x="320" y="501" width="280" height="20" as="geometry" />
        </mxCell>
        <mxCell id="pa58yBCoyjydbq_0cEsw-144" value="Meetings" style="rounded=0;whiteSpace=wrap;html=1;fontStyle=1;align=left;spacingLeft=10;fillColor=#dae8fc;strokeColor=#6c8ebf;" vertex="1" parent="1">
          <mxGeometry x="320" y="591" width="280" height="20" as="geometry" />
        </mxCell>
        <mxCell id="pa58yBCoyjydbq_0cEsw-145" style="edgeStyle=orthogonalEdgeStyle;rounded=0;orthogonalLoop=1;jettySize=auto;html=1;exitX=1;exitY=0.5;exitDx=0;exitDy=0;entryX=0;entryY=0.5;entryDx=0;entryDy=0;" edge="1" parent="1" source="pa58yBCoyjydbq_0cEsw-146" target="pa58yBCoyjydbq_0cEsw-142">
          <mxGeometry relative="1" as="geometry" />
        </mxCell>
        <mxCell id="pa58yBCoyjydbq_0cEsw-146" value="Brainstorming" style="rounded=0;whiteSpace=wrap;html=1;fontStyle=1;align=left;spacingLeft=10;fillColor=#fff2cc;strokeColor=#d6b656;" vertex="1" parent="1">
          <mxGeometry x="80" y="411" width="160" height="20" as="geometry" />
        </mxCell>
        <mxCell id="pa58yBCoyjydbq_0cEsw-147" style="edgeStyle=orthogonalEdgeStyle;rounded=0;orthogonalLoop=1;jettySize=auto;html=1;exitX=1;exitY=0.5;exitDx=0;exitDy=0;entryX=0;entryY=0.5;entryDx=0;entryDy=0;" edge="1" parent="1" source="pa58yBCoyjydbq_0cEsw-148" target="pa58yBCoyjydbq_0cEsw-142">
          <mxGeometry relative="1" as="geometry" />
        </mxCell>
        <mxCell id="pa58yBCoyjydbq_0cEsw-148" value="Focus groups" style="rounded=0;whiteSpace=wrap;html=1;fontStyle=1;align=left;spacingLeft=10;fillColor=#fff2cc;strokeColor=#d6b656;" vertex="1" parent="1">
          <mxGeometry x="80" y="441" width="160" height="20" as="geometry" />
        </mxCell>
        <mxCell id="pa58yBCoyjydbq_0cEsw-149" style="edgeStyle=orthogonalEdgeStyle;rounded=0;orthogonalLoop=1;jettySize=auto;html=1;exitX=1;exitY=0.5;exitDx=0;exitDy=0;entryX=0;entryY=0.5;entryDx=0;entryDy=0;" edge="1" parent="1" source="pa58yBCoyjydbq_0cEsw-150" target="pa58yBCoyjydbq_0cEsw-142">
          <mxGeometry relative="1" as="geometry" />
        </mxCell>
        <mxCell id="pa58yBCoyjydbq_0cEsw-150" value="Interviews" style="rounded=0;whiteSpace=wrap;html=1;fontStyle=1;align=left;spacingLeft=10;fillColor=#fff2cc;strokeColor=#d6b656;" vertex="1" parent="1">
          <mxGeometry x="80" y="471" width="160" height="20" as="geometry" />
        </mxCell>
        <mxCell id="pa58yBCoyjydbq_0cEsw-151" style="edgeStyle=orthogonalEdgeStyle;rounded=0;orthogonalLoop=1;jettySize=auto;html=1;exitX=1;exitY=0.5;exitDx=0;exitDy=0;entryX=0;entryY=0.5;entryDx=0;entryDy=0;" edge="1" parent="1" source="pa58yBCoyjydbq_0cEsw-152" target="pa58yBCoyjydbq_0cEsw-143">
          <mxGeometry relative="1" as="geometry" />
        </mxCell>
        <mxCell id="pa58yBCoyjydbq_0cEsw-152" value="Conflict Management" style="rounded=0;whiteSpace=wrap;html=1;fontStyle=1;align=left;spacingLeft=10;fillColor=#fff2cc;strokeColor=#d6b656;" vertex="1" parent="1">
          <mxGeometry x="80" y="501" width="160" height="20" as="geometry" />
        </mxCell>
        <mxCell id="pa58yBCoyjydbq_0cEsw-153" style="edgeStyle=orthogonalEdgeStyle;rounded=0;orthogonalLoop=1;jettySize=auto;html=1;exitX=1;exitY=0.5;exitDx=0;exitDy=0;entryX=0;entryY=0.5;entryDx=0;entryDy=0;" edge="1" parent="1" source="pa58yBCoyjydbq_0cEsw-154" target="pa58yBCoyjydbq_0cEsw-143">
          <mxGeometry relative="1" as="geometry" />
        </mxCell>
        <mxCell id="pa58yBCoyjydbq_0cEsw-154" value="Facilitation" style="rounded=0;whiteSpace=wrap;html=1;fontStyle=1;align=left;spacingLeft=10;fillColor=#fff2cc;strokeColor=#d6b656;" vertex="1" parent="1">
          <mxGeometry x="80" y="531" width="160" height="20" as="geometry" />
        </mxCell>
        <mxCell id="pa58yBCoyjydbq_0cEsw-155" style="edgeStyle=orthogonalEdgeStyle;rounded=0;orthogonalLoop=1;jettySize=auto;html=1;exitX=1;exitY=0.5;exitDx=0;exitDy=0;entryX=0;entryY=0.5;entryDx=0;entryDy=0;" edge="1" parent="1" source="pa58yBCoyjydbq_0cEsw-156" target="pa58yBCoyjydbq_0cEsw-143">
          <mxGeometry relative="1" as="geometry" />
        </mxCell>
        <mxCell id="pa58yBCoyjydbq_0cEsw-156" value="Meeting Management" style="rounded=0;whiteSpace=wrap;html=1;fontStyle=1;align=left;spacingLeft=10;fillColor=#fff2cc;strokeColor=#d6b656;" vertex="1" parent="1">
          <mxGeometry x="80" y="561" width="160" height="20" as="geometry" />
        </mxCell>
        <mxCell id="pa58yBCoyjydbq_0cEsw-157" value="Tools &amp;amp; Techniques" style="text;html=1;align=center;verticalAlign=middle;whiteSpace=wrap;rounded=0;fontSize=20;fontStyle=1;fillColor=#76608a;fontColor=#ffffff;strokeColor=#432D57;" vertex="1" parent="1">
          <mxGeometry x="160.5" y="321" width="245" height="30" as="geometry" />
        </mxCell>
        <mxCell id="pa58yBCoyjydbq_0cEsw-158" value="Tools &amp;amp; Techniques" style="text;html=1;align=center;verticalAlign=middle;whiteSpace=wrap;rounded=0;fontSize=20;fontStyle=1;fillColor=#76608a;fontColor=#ffffff;strokeColor=#432D57;" vertex="1" parent="1">
          <mxGeometry x="80" y="5090" width="245" height="30" as="geometry" />
        </mxCell>
        <mxCell id="pa58yBCoyjydbq_0cEsw-160" style="edgeStyle=orthogonalEdgeStyle;rounded=0;orthogonalLoop=1;jettySize=auto;html=1;exitX=1;exitY=0.5;exitDx=0;exitDy=0;entryX=0;entryY=0.5;entryDx=0;entryDy=0;" edge="1" parent="1" source="pa58yBCoyjydbq_0cEsw-159" target="pa58yBCoyjydbq_0cEsw-74">
          <mxGeometry relative="1" as="geometry" />
        </mxCell>
        <mxCell id="pa58yBCoyjydbq_0cEsw-159" value="Interviews" style="rounded=0;whiteSpace=wrap;html=1;fontStyle=1;align=left;spacingLeft=10;fillColor=#fff2cc;strokeColor=#d6b656;" vertex="1" parent="1">
          <mxGeometry x="40" y="5270" width="160" height="20" as="geometry" />
        </mxCell>
        <mxCell id="pa58yBCoyjydbq_0cEsw-161" value="Expert Judgment" style="rounded=0;whiteSpace=wrap;html=1;fontStyle=1;align=left;spacingLeft=10;fillColor=#dae8fc;strokeColor=#6c8ebf;" vertex="1" parent="1">
          <mxGeometry x="1680" y="501" width="280" height="20" as="geometry" />
        </mxCell>
        <mxCell id="pa58yBCoyjydbq_0cEsw-162" value="Data Gathering" style="rounded=0;whiteSpace=wrap;html=1;fontStyle=1;align=left;spacingLeft=10;fillColor=#dae8fc;strokeColor=#6c8ebf;" vertex="1" parent="1">
          <mxGeometry x="1680" y="531" width="280" height="20" as="geometry" />
        </mxCell>
        <mxCell id="pa58yBCoyjydbq_0cEsw-163" value="Interpersonal and Team Skills" style="rounded=0;whiteSpace=wrap;html=1;fontStyle=1;align=left;spacingLeft=10;fillColor=#dae8fc;strokeColor=#6c8ebf;" vertex="1" parent="1">
          <mxGeometry x="1680" y="651" width="280" height="20" as="geometry" />
        </mxCell>
        <mxCell id="pa58yBCoyjydbq_0cEsw-164" value="Meetings" style="rounded=0;whiteSpace=wrap;html=1;fontStyle=1;align=left;spacingLeft=10;fillColor=#dae8fc;strokeColor=#6c8ebf;" vertex="1" parent="1">
          <mxGeometry x="1680" y="741" width="280" height="20" as="geometry" />
        </mxCell>
        <mxCell id="pa58yBCoyjydbq_0cEsw-165" style="edgeStyle=orthogonalEdgeStyle;rounded=0;orthogonalLoop=1;jettySize=auto;html=1;exitX=1;exitY=0.5;exitDx=0;exitDy=0;entryX=0;entryY=0.5;entryDx=0;entryDy=0;" edge="1" parent="1" source="pa58yBCoyjydbq_0cEsw-166" target="pa58yBCoyjydbq_0cEsw-162">
          <mxGeometry relative="1" as="geometry" />
        </mxCell>
        <mxCell id="pa58yBCoyjydbq_0cEsw-166" value="Brainstorming" style="rounded=0;whiteSpace=wrap;html=1;fontStyle=1;align=left;spacingLeft=10;fillColor=#fff2cc;strokeColor=#d6b656;" vertex="1" parent="1">
          <mxGeometry x="1440" y="531" width="160" height="20" as="geometry" />
        </mxCell>
        <mxCell id="pa58yBCoyjydbq_0cEsw-167" style="edgeStyle=orthogonalEdgeStyle;rounded=0;orthogonalLoop=1;jettySize=auto;html=1;exitX=1;exitY=0.5;exitDx=0;exitDy=0;entryX=0;entryY=0.5;entryDx=0;entryDy=0;" edge="1" parent="1" source="pa58yBCoyjydbq_0cEsw-168" target="pa58yBCoyjydbq_0cEsw-162">
          <mxGeometry relative="1" as="geometry" />
        </mxCell>
        <mxCell id="pa58yBCoyjydbq_0cEsw-168" value="Checklists" style="rounded=0;whiteSpace=wrap;html=1;fontStyle=1;align=left;spacingLeft=10;fillColor=#fff2cc;strokeColor=#d6b656;" vertex="1" parent="1">
          <mxGeometry x="1440" y="561" width="160" height="20" as="geometry" />
        </mxCell>
        <mxCell id="pa58yBCoyjydbq_0cEsw-169" style="edgeStyle=orthogonalEdgeStyle;rounded=0;orthogonalLoop=1;jettySize=auto;html=1;exitX=1;exitY=0.5;exitDx=0;exitDy=0;entryX=0;entryY=0.5;entryDx=0;entryDy=0;" edge="1" parent="1" source="pa58yBCoyjydbq_0cEsw-170" target="pa58yBCoyjydbq_0cEsw-162">
          <mxGeometry relative="1" as="geometry" />
        </mxCell>
        <mxCell id="pa58yBCoyjydbq_0cEsw-170" value="Focus groups" style="rounded=0;whiteSpace=wrap;html=1;fontStyle=1;align=left;spacingLeft=10;fillColor=#fff2cc;strokeColor=#d6b656;" vertex="1" parent="1">
          <mxGeometry x="1440" y="591" width="160" height="20" as="geometry" />
        </mxCell>
        <mxCell id="pa58yBCoyjydbq_0cEsw-171" style="edgeStyle=orthogonalEdgeStyle;rounded=0;orthogonalLoop=1;jettySize=auto;html=1;exitX=1;exitY=0.5;exitDx=0;exitDy=0;entryX=0;entryY=0.5;entryDx=0;entryDy=0;" edge="1" parent="1" source="pa58yBCoyjydbq_0cEsw-172" target="pa58yBCoyjydbq_0cEsw-163">
          <mxGeometry relative="1" as="geometry" />
        </mxCell>
        <mxCell id="pa58yBCoyjydbq_0cEsw-172" value="Conflict Management" style="rounded=0;whiteSpace=wrap;html=1;fontStyle=1;align=left;spacingLeft=10;fillColor=#fff2cc;strokeColor=#d6b656;" vertex="1" parent="1">
          <mxGeometry x="1440" y="651" width="160" height="20" as="geometry" />
        </mxCell>
        <mxCell id="pa58yBCoyjydbq_0cEsw-173" style="edgeStyle=orthogonalEdgeStyle;rounded=0;orthogonalLoop=1;jettySize=auto;html=1;exitX=1;exitY=0.5;exitDx=0;exitDy=0;entryX=0;entryY=0.5;entryDx=0;entryDy=0;" edge="1" parent="1" source="pa58yBCoyjydbq_0cEsw-174" target="pa58yBCoyjydbq_0cEsw-163">
          <mxGeometry relative="1" as="geometry" />
        </mxCell>
        <mxCell id="pa58yBCoyjydbq_0cEsw-174" value="Facilitation" style="rounded=0;whiteSpace=wrap;html=1;fontStyle=1;align=left;spacingLeft=10;fillColor=#fff2cc;strokeColor=#d6b656;" vertex="1" parent="1">
          <mxGeometry x="1440" y="681" width="160" height="20" as="geometry" />
        </mxCell>
        <mxCell id="pa58yBCoyjydbq_0cEsw-175" style="edgeStyle=orthogonalEdgeStyle;rounded=0;orthogonalLoop=1;jettySize=auto;html=1;exitX=1;exitY=0.5;exitDx=0;exitDy=0;entryX=0;entryY=0.5;entryDx=0;entryDy=0;" edge="1" parent="1" source="pa58yBCoyjydbq_0cEsw-176" target="pa58yBCoyjydbq_0cEsw-163">
          <mxGeometry relative="1" as="geometry" />
        </mxCell>
        <mxCell id="pa58yBCoyjydbq_0cEsw-176" value="Meeting Management" style="rounded=0;whiteSpace=wrap;html=1;fontStyle=1;align=left;spacingLeft=10;fillColor=#fff2cc;strokeColor=#d6b656;" vertex="1" parent="1">
          <mxGeometry x="1440" y="711" width="160" height="20" as="geometry" />
        </mxCell>
        <mxCell id="pa58yBCoyjydbq_0cEsw-177" value="Tools &amp;amp; Techniques" style="text;html=1;align=center;verticalAlign=middle;whiteSpace=wrap;rounded=0;fontSize=20;fontStyle=1;fillColor=#76608a;fontColor=#ffffff;strokeColor=#432D57;" vertex="1" parent="1">
          <mxGeometry x="1480" y="441" width="245" height="30" as="geometry" />
        </mxCell>
        <mxCell id="pa58yBCoyjydbq_0cEsw-178" style="edgeStyle=orthogonalEdgeStyle;rounded=0;orthogonalLoop=1;jettySize=auto;html=1;exitX=1;exitY=0.5;exitDx=0;exitDy=0;entryX=0;entryY=0.5;entryDx=0;entryDy=0;" edge="1" parent="1" source="pa58yBCoyjydbq_0cEsw-179" target="pa58yBCoyjydbq_0cEsw-162">
          <mxGeometry relative="1" as="geometry" />
        </mxCell>
        <mxCell id="pa58yBCoyjydbq_0cEsw-179" value="Interviews" style="rounded=0;whiteSpace=wrap;html=1;fontStyle=1;align=left;spacingLeft=10;fillColor=#fff2cc;strokeColor=#d6b656;" vertex="1" parent="1">
          <mxGeometry x="1440" y="621" width="160" height="20" as="geometry" />
        </mxCell>
      </root>
    </mxGraphModel>
  </diagram>
</mxfile>
